<svg id="logoSVG" width="500" height="150" viewBox="0 0 500 150" xmlns="http://www.w3.org/2000/svg">
                <defs>
                    <linearGradient id="mainGradient" x1="0%" y1="0%" x2="100%" y2="100%">
                        <stop offset="0%" style="stop-color:#667eea;stop-opacity:1"/>
                        <stop offset="50%" style="stop-color:#764ba2;stop-opacity:1"/>
                        <stop offset="100%" style="stop-color:#f093fb;stop-opacity:1"/>
                    </linearGradient>
                    <linearGradient id="hornGradient" x1="0%" y1="0%" x2="0%" y2="100%">
                        <stop offset="0%" style="stop-color:#ffd700;stop-opacity:1"/>
                        <stop offset="100%" style="stop-color:#ff6b9d;stop-opacity:1"/>
                    </linearGradient>
                    <radialGradient id="shineGradient">
                        <stop offset="0%" style="stop-color:#ffffff;stop-opacity:0.9"/>
                        <stop offset="100%" style="stop-color:#ffffff;stop-opacity:0"/>
                    </radialGradient>
                </defs>
                
                <!-- Fondo blanco -->
                <rect width="500" height="150" fill="white"/>
                
                <!-- Estrellas decorativas -->
                <g transform="translate(60, 35)">
                    <polygon points="0,-6 1.5,-1.5 6,-1.5 2.5,1.5 4,6 0,3 -4,6 -2.5,1.5 -6,-1.5 -1.5,-1.5" fill="#ffd700" opacity="0.6"/>
                </g>
                <g transform="translate(440, 40)">
                    <polygon points="0,-5 1,-1 5,-1 2,1 3,5 0,3 -3,5 -2,1 -5,-1 -1,-1" fill="#ec4899" opacity="0.6"/>
                </g>
                <g transform="translate(40, 90)">
                    <polygon points="0,-4 1,-1 4,-1 2,1 2.5,4 0,2 -2.5,4 -2,1 -4,-1 -1,-1" fill="#a78bfa" opacity="0.5"/>
                </g>
                
                <!-- Texto "Tu Unicornio" -->
                <text x="250" y="70" font-family="Arial, Helvetica, sans-serif" font-size="52" font-weight="bold" fill="url(#mainGradient)" text-anchor="middle">Tu Unicornio</text>
                
                <!-- Cuerno en la última O -->
                <g transform="translate(408, 38)">
                    <polygon points="0,-22 -4,0 4,0" fill="url(#hornGradient)"/>
                    <line x1="-2.5" y1="-17" x2="2.5" y2="-17" stroke="#ffffff" stroke-width="1.5" opacity="0.8" stroke-linecap="round"/>
                    <line x1="-2" y1="-12" x2="2" y2="-12" stroke="#ffffff" stroke-width="1.5" opacity="0.8" stroke-linecap="round"/>
                    <line x1="-1.5" y1="-7" x2="1.5" y2="-7" stroke="#ffffff" stroke-width="1.5" opacity="0.8" stroke-linecap="round"/>
                    <circle cx="0" cy="-20" r="3" fill="url(#shineGradient)" opacity="0.9"/>
                    <circle cx="-6" cy="-15" r="1.5" fill="#ffd700" opacity="0.7"/>
                    <circle cx="6" cy="-15" r="1.5" fill="#ffd700" opacity="0.7"/>
                </g>
                
                <!-- Línea decorativa -->
                <line x1="130" y1="87" x2="370" y2="87" stroke="url(#mainGradient)" stroke-width="2.5" opacity="0.5" stroke-linecap="round"/>
                
                <!-- Subtítulo "SOLUCIONES GEEKS" -->
                <text x="250" y="107" font-family="Arial, Helvetica, sans-serif" font-size="18" font-weight="300" fill="#764ba2" text-anchor="middle" letter-spacing="4">SOLUCIONES GEEKS</text>
                <text x="125" y="107" font-family="Courier New, monospace" font-size="16" fill="#667eea" opacity="0.6" font-weight="bold">&lt;/&gt;</text>
                <text x="365" y="107" font-family="Courier New, monospace" font-size="16" fill="#667eea" opacity="0.6" font-weight="bold">{...}</text>
                
                <!-- Tagline -->
                <text x="250" y="132" font-family="Arial, Helvetica, sans-serif" font-size="13" font-style="italic" fill="#718096" text-anchor="middle">Donde las ideas se vuelven leyenda</text>
            </svg>